<svg width="80" height="80" viewBox="0 0 80 80" fill="none" xmlns="http://www.w3.org/2000/svg">
  <defs>
    <linearGradient id="cloud-grad" x1="0%" y1="0%" x2="100%" y2="100%">
      <stop offset="0%" style="stop-color:#06B6D4;stop-opacity:1" />
      <stop offset="100%" style="stop-color:#3B82F6;stop-opacity:1" />
    </linearGradient>
  </defs>
  
  <!-- Cloud shape -->
  <ellipse cx="40" cy="35" rx="20" ry="12" fill="url(#cloud-grad)" opacity="0.2"/>
  <ellipse cx="28" cy="38" rx="14" ry="10" fill="url(#cloud-grad)" opacity="0.3"/>
  <ellipse cx="52" cy="38" rx="14" ry="10" fill="url(#cloud-grad)" opacity="0.3"/>
  
  <!-- Cloud outline -->
  <path d="M 20 38 Q 20 28 30 28 Q 32 22 40 22 Q 48 22 50 28 Q 60 28 60 38 Q 60 45 52 45 L 28 45 Q 20 45 20 38 Z" 
        fill="none" stroke="url(#cloud-grad)" stroke-width="2.5" stroke-linejoin="round"/>
  
  <!-- Data nodes in cloud -->
  <circle cx="32" cy="35" r="2" fill="url(#cloud-grad)"/>
  <circle cx="40" cy="33" r="2" fill="url(#cloud-grad)"/>
  <circle cx="48" cy="35" r="2" fill="url(#cloud-grad)"/>
  <line x1="32" y1="35" x2="40" y2="33" stroke="url(#cloud-grad)" stroke-width="1"/>
  <line x1="40" y1="33" x2="48" y2="35" stroke="url(#cloud-grad)" stroke-width="1"/>
  
  <!-- Upload/Download arrows -->
  <path d="M 30 52 L 30 62 M 27 59 L 30 62 L 33 59" 
        stroke="url(#cloud-grad)" stroke-width="2" stroke-linecap="round" stroke-linejoin="round"/>
  <path d="M 50 62 L 50 52 M 47 55 L 50 52 L 53 55" 
        stroke="url(#cloud-grad)" stroke-width="2" stroke-linecap="round" stroke-linejoin="round"/>
  
  <!-- Server base -->
  <rect x="35" y="65" width="10" height="8" rx="1" fill="url(#cloud-grad)" opacity="0.3" stroke="url(#cloud-grad)" stroke-width="1.5"/>
  <line x1="36" y1="69" x2="44" y2="69" stroke="url(#cloud-grad)" stroke-width="1"/>
</svg>
