<svg width="80" height="80" viewBox="0 0 80 80" fill="none" xmlns="http://www.w3.org/2000/svg">
  <defs>
    <linearGradient id="expertise-grad" x1="0%" y1="0%" x2="100%" y2="100%">
      <stop offset="0%" style="stop-color:#06B6D4;stop-opacity:1" />
      <stop offset="100%" style="stop-color:#3B82F6;stop-opacity:1" />
    </linearGradient>
  </defs>
  
  <!-- Award badge circle -->
  <circle cx="40" cy="40" r="22" fill="url(#expertise-grad)" opacity="0.2"/>
  <circle cx="40" cy="40" r="18" fill="none" stroke="url(#expertise-grad)" stroke-width="2.5"/>
  
  <!-- Star in center -->
  <path d="M 40 28 L 43 36 L 52 36 L 45 42 L 48 50 L 40 45 L 32 50 L 35 42 L 28 36 L 37 36 Z" 
        fill="url(#expertise-grad)" opacity="0.8"/>
  
  <!-- Ribbon left -->
  <path d="M 25 52 L 25 70 L 30 65 L 35 70 L 35 52" 
        fill="url(#expertise-grad)" opacity="0.6" stroke="url(#expertise-grad)" stroke-width="1.5"/>
  
  <!-- Ribbon right -->
  <path d="M 45 52 L 45 70 L 50 65 L 55 70 L 55 52" 
        fill="url(#expertise-grad)" opacity="0.6" stroke="url(#expertise-grad)" stroke-width="1.5"/>
  
  <!-- Decorative dots -->
  <circle cx="15" cy="25" r="2" fill="#06B6D4" opacity="0.6"/>
  <circle cx="65" cy="25" r="2" fill="#3B82F6" opacity="0.6"/>
  <circle cx="15" cy="55" r="2" fill="#3B82F6" opacity="0.6"/>
  <circle cx="65" cy="55" r="2" fill="#06B6D4" opacity="0.6"/>
</svg>
