<svg width="80" height="80" viewBox="0 0 80 80" fill="none" xmlns="http://www.w3.org/2000/svg">
  <defs>
    <linearGradient id="frontend-grad" x1="0%" y1="0%" x2="100%" y2="100%">
      <stop offset="0%" style="stop-color:#EC4899;stop-opacity:1" />
      <stop offset="100%" style="stop-color:#8B5CF6;stop-opacity:1" />
    </linearGradient>
  </defs>
  
  <!-- Browser window -->
  <rect x="15" y="20" width="50" height="45" rx="4" fill="url(#frontend-grad)" opacity="0.2"/>
  <rect x="15" y="20" width="50" height="45" rx="4" fill="none" stroke="url(#frontend-grad)" stroke-width="2.5"/>
  
  <!-- Browser bar -->
  <rect x="15" y="20" width="50" height="8" rx="4" fill="url(#frontend-grad)" opacity="0.4"/>
  <circle cx="22" cy="24" r="1.5" fill="#EC4899"/>
  <circle cx="28" cy="24" r="1.5" fill="#8B5CF6"/>
  <circle cx="34" cy="24" r="1.5" fill="#06B6D4"/>
  
  <!-- UI Elements -->
  <rect x="20" y="35" width="20" height="3" rx="1.5" fill="url(#frontend-grad)" opacity="0.6"/>
  <rect x="20" y="42" width="15" height="3" rx="1.5" fill="url(#frontend-grad)" opacity="0.5"/>
  <rect x="20" y="49" width="18" height="3" rx="1.5" fill="url(#frontend-grad)" opacity="0.6"/>
  
  <!-- Image placeholder -->
  <rect x="45" y="35" width="15" height="15" rx="2" fill="url(#frontend-grad)" opacity="0.3"/>
  <circle cx="52.5" cy="42.5" r="7" fill="none" stroke="url(#frontend-grad)" stroke-width="1.5" opacity="0.6"/>
  
  <!-- Button -->
  <rect x="20" y="56" width="12" height="5" rx="2.5" fill="url(#frontend-grad)" opacity="0.7"/>
  
  <!-- Cursor pointer -->
  <path d="M 55 58 L 55 68 L 58 64 L 62 67 L 64 64 L 60 61 L 64 61 Z" 
        fill="url(#frontend-grad)" stroke="url(#frontend-grad)" stroke-width="1"/>
</svg>
