<svg width="80" height="80" viewBox="0 0 80 80" fill="none" xmlns="http://www.w3.org/2000/svg">
  <defs>
    <linearGradient id="reliability-grad" x1="0%" y1="0%" x2="100%" y2="100%">
      <stop offset="0%" style="stop-color:#10B981;stop-opacity:1" />
      <stop offset="100%" style="stop-color:#06B6D4;stop-opacity:1" />
    </linearGradient>
  </defs>
  
  <!-- Shield outline -->
  <path d="M 40 15 L 60 25 L 60 45 Q 60 60 40 70 Q 20 60 20 45 L 20 25 Z" 
        fill="url(#reliability-grad)" opacity="0.2"/>
  <path d="M 40 15 L 60 25 L 60 45 Q 60 60 40 70 Q 20 60 20 45 L 20 25 Z" 
        fill="none" stroke="url(#reliability-grad)" stroke-width="2.5" stroke-linejoin="round"/>
  
  <!-- Checkmark -->
  <path d="M 30 42 L 37 50 L 52 32" 
        stroke="url(#reliability-grad)" stroke-width="3" stroke-linecap="round" stroke-linejoin="round" fill="none"/>
  
  <!-- Inner shield detail -->
  <path d="M 40 20 L 55 28 L 55 45 Q 55 56 40 64 Q 25 56 25 45 L 25 28 Z" 
        fill="none" stroke="url(#reliability-grad)" stroke-width="1" opacity="0.4" stroke-linejoin="round"/>
</svg>
