<svg width="80" height="80" viewBox="0 0 80 80" fill="none" xmlns="http://www.w3.org/2000/svg">
  <defs>
    <linearGradient id="scale-grad" x1="0%" y1="0%" x2="100%" y2="100%">
      <stop offset="0%" style="stop-color:#06B6D4;stop-opacity:1" />
      <stop offset="100%" style="stop-color:#8B5CF6;stop-opacity:1" />
    </linearGradient>
  </defs>
  
  <!-- Expanding boxes -->
  <rect x="35" y="35" width="10" height="10" rx="2" fill="url(#scale-grad)" opacity="0.8" stroke="url(#scale-grad)" stroke-width="2"/>
  <rect x="30" y="30" width="20" height="20" rx="2" fill="none" stroke="url(#scale-grad)" stroke-width="2" opacity="0.6"/>
  <rect x="25" y="25" width="30" height="30" rx="2" fill="none" stroke="url(#scale-grad)" stroke-width="2" opacity="0.4"/>
  <rect x="20" y="20" width="40" height="40" rx="2" fill="none" stroke="url(#scale-grad)" stroke-width="2" opacity="0.2"/>
  
  <!-- Arrows pointing outward -->
  <path d="M 40 15 L 40 18 M 37 16 L 40 13 L 43 16" 
        stroke="url(#scale-grad)" stroke-width="2" stroke-linecap="round" stroke-linejoin="round"/>
  <path d="M 40 65 L 40 62 M 37 64 L 40 67 L 43 64" 
        stroke="url(#scale-grad)" stroke-width="2" stroke-linecap="round" stroke-linejoin="round"/>
  <path d="M 15 40 L 18 40 M 16 37 L 13 40 L 16 43" 
        stroke="url(#scale-grad)" stroke-width="2" stroke-linecap="round" stroke-linejoin="round"/>
  <path d="M 65 40 L 62 40 M 64 37 L 67 40 L 64 43" 
        stroke="url(#scale-grad)" stroke-width="2" stroke-linecap="round" stroke-linejoin="round"/>
</svg>
