<svg width="80" height="80" viewBox="0 0 80 80" fill="none" xmlns="http://www.w3.org/2000/svg">
  <defs>
    <linearGradient id="secure-grad" x1="0%" y1="0%" x2="100%" y2="100%">
      <stop offset="0%" style="stop-color:#EF4444;stop-opacity:1" />
      <stop offset="100%" style="stop-color:#F59E0B;stop-opacity:1" />
    </linearGradient>
  </defs>
  
  <!-- Lock body -->
  <rect x="28" y="40" width="24" height="25" rx="3" fill="url(#secure-grad)" opacity="0.3"/>
  <rect x="28" y="40" width="24" height="25" rx="3" fill="none" stroke="url(#secure-grad)" stroke-width="2.5"/>
  
  <!-- Lock shackle -->
  <path d="M 32 40 L 32 28 Q 32 20 40 20 Q 48 20 48 28 L 48 40" 
        fill="none" stroke="url(#secure-grad)" stroke-width="2.5" stroke-linecap="round"/>
  
  <!-- Keyhole -->
  <circle cx="40" cy="50" r="3" fill="url(#secure-grad)"/>
  <rect x="38" y="50" width="4" height="8" rx="1" fill="url(#secure-grad)"/>
  
  <!-- Security dots -->
  <circle cx="20" cy="35" r="2" fill="#EF4444" opacity="0.6"/>
  <circle cx="60" cy="35" r="2" fill="#F59E0B" opacity="0.6"/>
  <circle cx="20" cy="55" r="2" fill="#F59E0B" opacity="0.6"/>
  <circle cx="60" cy="55" r="2" fill="#EF4444" opacity="0.6"/>
  
  <!-- Shield outline behind -->
  <path d="M 40 15 L 55 22 L 55 38 Q 55 48 40 55 Q 25 48 25 38 L 25 22 Z" 
        fill="none" stroke="url(#secure-grad)" stroke-width="1.5" opacity="0.3" stroke-dasharray="3,3"/>
</svg>
