<svg width="80" height="80" viewBox="0 0 80 80" fill="none" xmlns="http://www.w3.org/2000/svg">
  <defs>
    <linearGradient id="tools-grad" x1="0%" y1="0%" x2="100%" y2="100%">
      <stop offset="0%" style="stop-color:#F59E0B;stop-opacity:1" />
      <stop offset="100%" style="stop-color:#EF4444;stop-opacity:1" />
    </linearGradient>
  </defs>
  
  <!-- Wrench -->
  <path d="M 25 50 L 35 40 L 40 45 L 30 55 Z" 
        fill="url(#tools-grad)" opacity="0.3" stroke="url(#tools-grad)" stroke-width="2" stroke-linejoin="round"/>
  <circle cx="38" cy="37" r="8" fill="none" stroke="url(#tools-grad)" stroke-width="2.5"/>
  <circle cx="38" cy="37" r="3" fill="url(#tools-grad)" opacity="0.6"/>
  
  <!-- Gear -->
  <circle cx="52" cy="45" r="10" fill="url(#tools-grad)" opacity="0.2"/>
  <circle cx="52" cy="45" r="10" fill="none" stroke="url(#tools-grad)" stroke-width="2.5"/>
  <circle cx="52" cy="45" r="5" fill="none" stroke="url(#tools-grad)" stroke-width="2"/>
  
  <!-- Gear teeth -->
  <rect x="50" y="32" width="4" height="5" rx="1" fill="url(#tools-grad)"/>
  <rect x="50" y="58" width="4" height="5" rx="1" fill="url(#tools-grad)"/>
  <rect x="37" y="43" width="5" height="4" rx="1" fill="url(#tools-grad)"/>
  <rect x="63" y="43" width="5" height="4" rx="1" fill="url(#tools-grad)"/>
  
  <!-- Code symbol -->
  <path d="M 20 25 L 15 30 L 20 35" stroke="url(#tools-grad)" stroke-width="2" stroke-linecap="round" stroke-linejoin="round"/>
  <path d="M 30 25 L 35 30 L 30 35" stroke="url(#tools-grad)" stroke-width="2" stroke-linecap="round" stroke-linejoin="round"/>
  <line x1="27" y1="23" x2="23" y2="37" stroke="url(#tools-grad)" stroke-width="2" stroke-linecap="round"/>
  
  <!-- Bottom elements -->
  <circle cx="25" cy="65" r="2" fill="url(#tools-grad)" opacity="0.6"/>
  <circle cx="40" cy="68" r="2" fill="url(#tools-grad)" opacity="0.6"/>
  <circle cx="55" cy="65" r="2" fill="url(#tools-grad)" opacity="0.6"/>
</svg>
